<svg id="Layer_1" data-name="Layer 1" xmlns="http://www.w3.org/2000/svg" viewBox="0 0 72.91 72.09"><defs><style>.cls-1{fill:#fff;}</style></defs><title>logo</title><path class="cls-1" d="M62.59,6.09H9.33A3.87,3.87,0,0,0,5.46,10V63.22a3.87,3.87,0,0,0,3.87,3.87H62.59a3.87,3.87,0,0,0,3.87-3.87V10A3.87,3.87,0,0,0,62.59,6.09ZM57.52,55H15.39V39.42a4.8,4.8,0,0,0,1.4.14A10.27,10.27,0,0,0,21,38.71V49.38H51.9V38.71a10.27,10.27,0,0,0,4.21.84h0a4.71,4.71,0,0,0,1.4-.14ZM56.13,33.94A5,5,0,0,1,51.21,29a4.89,4.89,0,0,1-4.92,4.92A5,5,0,0,1,41.38,29a4.89,4.89,0,0,1-4.92,4.92A5,5,0,0,1,31.55,29a4.89,4.89,0,0,1-4.92,4.92A5,5,0,0,1,21.72,29a4.89,4.89,0,0,1-4.92,4.92A5,5,0,0,1,11.88,29l7.72-11.93h33.7L61,29h0A4.88,4.88,0,0,1,56.13,33.94Z"/></svg>